<mxfile host="Electron" agent="Mozilla/5.0 (Windows NT 10.0; Win64; x64) AppleWebKit/537.36 (KHTML, like Gecko) draw.io/28.1.2 Chrome/138.0.7204.243 Electron/37.4.0 Safari/537.36" version="28.1.2">
  <diagram name="SistemasClinicos-AWS-BASA" id="SHINE_ohpRedOrhc_FpA">
    <mxGraphModel dx="4658" dy="801" grid="1" gridSize="10" guides="1" tooltips="1" connect="1" arrows="1" fold="1" page="1" pageScale="1" pageWidth="3300" pageHeight="4681" math="0" shadow="0">
      <root>
        <mxCell id="0" />
        <mxCell id="1" parent="0" />
        <mxCell id="MsHCaOuLPp2bLugetIOG-59" value="" style="rounded=0;whiteSpace=wrap;html=1;" parent="1" vertex="1">
          <mxGeometry x="-564" y="125" width="260" height="130" as="geometry" />
        </mxCell>
        <mxCell id="MsHCaOuLPp2bLugetIOG-1" value="&lt;font style=&quot;color: rgb(0, 0, 204);&quot;&gt;Avaliability Zone&lt;/font&gt;&lt;div&gt;&lt;font style=&quot;color: rgb(0, 0, 204);&quot;&gt;us-east-1a&lt;/font&gt;&lt;/div&gt;" style="swimlane;whiteSpace=wrap;html=1;dashed=1;dashPattern=8 8;startSize=50;" parent="1" vertex="1">
          <mxGeometry x="140" y="135" width="541" height="405" as="geometry">
            <mxRectangle x="160" y="140" width="130" height="40" as="alternateBounds" />
          </mxGeometry>
        </mxCell>
        <mxCell id="MsHCaOuLPp2bLugetIOG-21" value="Private subnet&lt;div&gt;&lt;div style=&quot;&quot;&gt;&lt;font color=&quot;#000000&quot;&gt;&lt;span style=&quot;background-color: transparent;&quot;&gt;sistemasclinicos&lt;/span&gt;&lt;span style=&quot;text-wrap-mode: nowrap;&quot;&gt;-private-0&lt;/span&gt;&lt;/font&gt;&lt;/div&gt;&lt;div style=&quot;color: rgb(36, 136, 20);&quot;&gt;&lt;div style=&quot;color: rgb(0, 0, 0); text-wrap-mode: nowrap;&quot;&gt;10.10.0.128/26 -&amp;nbsp;use1-az2&lt;/div&gt;&lt;/div&gt;&lt;/div&gt;" style="points=[[0,0],[0.25,0],[0.5,0],[0.75,0],[1,0],[1,0.25],[1,0.5],[1,0.75],[1,1],[0.75,1],[0.5,1],[0.25,1],[0,1],[0,0.75],[0,0.5],[0,0.25]];outlineConnect=0;gradientColor=none;html=1;whiteSpace=wrap;fontSize=12;fontStyle=0;container=1;pointerEvents=0;collapsible=0;recursiveResize=0;shape=mxgraph.aws4.group;grIcon=mxgraph.aws4.group_security_group;grStroke=0;strokeColor=#00A4A6;fillColor=#E6F6F7;verticalAlign=top;align=left;spacingLeft=30;fontColor=#147EBA;dashed=0;" parent="MsHCaOuLPp2bLugetIOG-1" vertex="1">
          <mxGeometry x="30" y="65" width="490" height="305" as="geometry" />
        </mxCell>
        <mxCell id="MsHCaOuLPp2bLugetIOG-22" value="" style="sketch=0;points=[[0,0,0],[0.25,0,0],[0.5,0,0],[0.75,0,0],[1,0,0],[0,1,0],[0.25,1,0],[0.5,1,0],[0.75,1,0],[1,1,0],[0,0.25,0],[0,0.5,0],[0,0.75,0],[1,0.25,0],[1,0.5,0],[1,0.75,0]];outlineConnect=0;fontColor=#232F3E;fillColor=#ED7100;strokeColor=#ffffff;dashed=0;verticalLabelPosition=bottom;verticalAlign=top;align=center;html=1;fontSize=12;fontStyle=0;aspect=fixed;shape=mxgraph.aws4.resourceIcon;resIcon=mxgraph.aws4.ec2;" parent="MsHCaOuLPp2bLugetIOG-21" vertex="1">
          <mxGeometry x="29" y="80" width="40" height="40" as="geometry" />
        </mxCell>
        <mxCell id="MsHCaOuLPp2bLugetIOG-23" value="&lt;span style=&quot;text-wrap-mode: wrap;&quot;&gt;sistemasclinicos-app-vm&lt;/span&gt;&lt;br&gt;&lt;div&gt;Private IP:&amp;nbsp;&lt;span style=&quot;text-wrap-mode: wrap; background-color: transparent; color: light-dark(rgb(0, 0, 0), rgb(255, 255, 255));&quot;&gt;sistemasclinicos&lt;/span&gt;&lt;span style=&quot;background-color: transparent; color: light-dark(rgb(0, 0, 0), rgb(255, 255, 255));&quot;&gt;-alb&lt;/span&gt;&lt;/div&gt;&lt;div&gt;&lt;span style=&quot;background-color: transparent; color: light-dark(rgb(0, 0, 0), rgb(255, 255, 255));&quot;&gt;Instance Type: t3.xlarge&lt;/span&gt;&lt;/div&gt;&lt;div&gt;SO: Ubuntu 24.04&lt;/div&gt;" style="text;html=1;align=left;verticalAlign=middle;resizable=0;points=[];autosize=1;strokeColor=none;fillColor=none;" parent="MsHCaOuLPp2bLugetIOG-21" vertex="1">
          <mxGeometry x="80" y="80" width="190" height="70" as="geometry" />
        </mxCell>
        <mxCell id="MsHCaOuLPp2bLugetIOG-41" value="&lt;font style=&quot;color: rgb(0, 0, 204);&quot;&gt;sistemasclinicos-cluster.cluster-coejigdgoaon.us-east-1.rds.amazonaws.com&lt;/font&gt;&lt;div&gt;Port: 3306&lt;/div&gt;" style="text;html=1;align=left;verticalAlign=middle;resizable=0;points=[];autosize=1;strokeColor=none;fillColor=none;" parent="MsHCaOuLPp2bLugetIOG-21" vertex="1">
          <mxGeometry x="81" y="183" width="430" height="40" as="geometry" />
        </mxCell>
        <mxCell id="MsHCaOuLPp2bLugetIOG-42" value="&lt;b&gt;&lt;font style=&quot;color: rgb(0, 0, 204);&quot;&gt;AWS Simple&lt;/font&gt;&lt;/b&gt;&lt;div&gt;&lt;b&gt;&lt;font style=&quot;color: rgb(0, 0, 204);&quot;&gt;Directory&lt;/font&gt;&lt;/b&gt;&lt;/div&gt;" style="outlineConnect=0;dashed=0;verticalLabelPosition=bottom;verticalAlign=top;align=center;html=1;shape=mxgraph.aws3.directory_service;fillColor=#759C3E;gradientColor=none;" parent="1" vertex="1">
          <mxGeometry x="-404" y="143" width="40" height="50" as="geometry" />
        </mxCell>
        <mxCell id="MsHCaOuLPp2bLugetIOG-48" value="AWS Cloud" style="points=[[0,0],[0.25,0],[0.5,0],[0.75,0],[1,0],[1,0.25],[1,0.5],[1,0.75],[1,1],[0.75,1],[0.5,1],[0.25,1],[0,1],[0,0.75],[0,0.5],[0,0.25]];outlineConnect=0;gradientColor=none;html=1;whiteSpace=wrap;fontSize=12;fontStyle=0;container=1;pointerEvents=0;collapsible=0;recursiveResize=0;shape=mxgraph.aws4.group;grIcon=mxgraph.aws4.group_aws_cloud;strokeColor=#232F3E;fillColor=none;verticalAlign=top;align=left;spacingLeft=30;fontColor=#232F3E;dashed=0;" parent="1" vertex="1">
          <mxGeometry x="-191" y="10" width="1271" height="600" as="geometry" />
        </mxCell>
        <mxCell id="MsHCaOuLPp2bLugetIOG-51" value="" style="whiteSpace=wrap;html=1;aspect=fixed;fillColor=#dae8fc;strokeColor=#A9C4EB;" parent="MsHCaOuLPp2bLugetIOG-48" vertex="1">
          <mxGeometry x="70" y="239" width="251" height="251" as="geometry" />
        </mxCell>
        <mxCell id="MsHCaOuLPp2bLugetIOG-50" value="" style="sketch=0;points=[[0,0,0],[0.25,0,0],[0.5,0,0],[0.75,0,0],[1,0,0],[0,1,0],[0.25,1,0],[0.5,1,0],[0.75,1,0],[1,1,0],[0,0.25,0],[0,0.5,0],[0,0.75,0],[1,0.25,0],[1,0.5,0],[1,0.75,0]];outlineConnect=0;fontColor=#232F3E;fillColor=#8C4FFF;strokeColor=#ffffff;dashed=0;verticalLabelPosition=bottom;verticalAlign=top;align=center;html=1;fontSize=12;fontStyle=0;aspect=fixed;shape=mxgraph.aws4.resourceIcon;resIcon=mxgraph.aws4.site_to_site_vpn;" parent="MsHCaOuLPp2bLugetIOG-48" vertex="1">
          <mxGeometry x="70" y="239" width="30" height="30" as="geometry" />
        </mxCell>
        <mxCell id="MsHCaOuLPp2bLugetIOG-52" value="&lt;b&gt;&lt;font style=&quot;color: rgb(0, 0, 204);&quot;&gt;Client VPN Subnet&lt;/font&gt;&lt;/b&gt;" style="text;html=1;align=center;verticalAlign=middle;resizable=0;points=[];autosize=1;strokeColor=none;fillColor=none;" parent="MsHCaOuLPp2bLugetIOG-48" vertex="1">
          <mxGeometry x="94" y="239" width="130" height="30" as="geometry" />
        </mxCell>
        <mxCell id="MsHCaOuLPp2bLugetIOG-53" value="Elastic Network Interface&lt;div&gt;&lt;br&gt;&lt;/div&gt;&lt;div&gt;Private Subnet&amp;nbsp;&lt;span style=&quot;color: rgb(0, 0, 0); text-align: left; text-wrap-mode: wrap; background-color: transparent;&quot;&gt;sistemasclinicos&lt;/span&gt;&lt;span style=&quot;background-color: transparent; color: light-dark(rgb(35, 47, 62), rgb(189, 199, 212));&quot;&gt;-private-0&lt;/span&gt;&lt;/div&gt;&lt;div&gt;Private IP: 10.10.0.139&lt;/div&gt;&lt;div&gt;Puiblic IP:&amp;nbsp;52.71.194.216&lt;/div&gt;&lt;div&gt;&lt;br&gt;&lt;/div&gt;&lt;div&gt;Private IP:&amp;nbsp;10.10.0.138&lt;/div&gt;&lt;div&gt;Public IP:&amp;nbsp;52.205.0.158&lt;/div&gt;" style="sketch=0;outlineConnect=0;fontColor=#232F3E;gradientColor=none;fillColor=#8C4FFF;strokeColor=none;dashed=0;verticalLabelPosition=bottom;verticalAlign=top;align=center;html=1;fontSize=12;fontStyle=0;aspect=fixed;pointerEvents=1;shape=mxgraph.aws4.elastic_network_interface;" parent="MsHCaOuLPp2bLugetIOG-48" vertex="1">
          <mxGeometry x="172.5" y="301" width="59" height="59" as="geometry" />
        </mxCell>
        <mxCell id="5VWoQrXUwFYdslfdeyXX-1" value="&lt;font style=&quot;color: rgb(0, 0, 204);&quot;&gt;Web Application Firewall&lt;br&gt;&lt;/font&gt;&lt;div&gt;&lt;span style=&quot;color: rgb(0, 0, 0); text-align: left; text-wrap-mode: wrap; background-color: transparent;&quot;&gt;sistemasclinicos&lt;/span&gt;-waf&lt;/div&gt;" style="sketch=0;points=[[0,0,0],[0.25,0,0],[0.5,0,0],[0.75,0,0],[1,0,0],[0,1,0],[0.25,1,0],[0.5,1,0],[0.75,1,0],[1,1,0],[0,0.25,0],[0,0.5,0],[0,0.75,0],[1,0.25,0],[1,0.5,0],[1,0.75,0]];outlineConnect=0;fontColor=#232F3E;fillColor=#DD344C;strokeColor=#ffffff;dashed=0;verticalLabelPosition=bottom;verticalAlign=top;align=center;html=1;fontSize=12;fontStyle=0;aspect=fixed;shape=mxgraph.aws4.resourceIcon;resIcon=mxgraph.aws4.waf;" parent="MsHCaOuLPp2bLugetIOG-48" vertex="1">
          <mxGeometry x="1004" y="209.5" width="59.5" height="59.5" as="geometry" />
        </mxCell>
        <mxCell id="MsHCaOuLPp2bLugetIOG-29" value="&lt;font style=&quot;color: rgb(0, 0, 204);&quot;&gt;Internet Gateway&lt;br&gt;&lt;/font&gt;&lt;div&gt;&lt;span style=&quot;color: rgb(0, 0, 0); text-align: left; text-wrap-mode: wrap; background-color: transparent;&quot;&gt;sistemasclinicos&lt;/span&gt;-igw&lt;/div&gt;" style="sketch=0;outlineConnect=0;fontColor=#232F3E;gradientColor=none;fillColor=#8C4FFF;strokeColor=none;dashed=0;verticalLabelPosition=bottom;verticalAlign=top;align=center;html=1;fontSize=12;fontStyle=0;aspect=fixed;pointerEvents=1;shape=mxgraph.aws4.internet_gateway;" parent="MsHCaOuLPp2bLugetIOG-48" vertex="1">
          <mxGeometry x="1008.75" y="70" width="50" height="50" as="geometry" />
        </mxCell>
        <mxCell id="MsHCaOuLPp2bLugetIOG-13" value="&lt;b style=&quot;text-align: left;&quot;&gt;&lt;font style=&quot;color: rgb(0, 0, 204);&quot;&gt;Application Load Balancer&lt;/font&gt;&lt;/b&gt;&lt;div&gt;&lt;div&gt;&lt;span style=&quot;text-align: left; text-wrap-mode: wrap; background-color: transparent; color: light-dark(rgb(0, 0, 0), rgb(255, 255, 255));&quot;&gt;sistemasclinicos&lt;/span&gt;-alb&lt;/div&gt;&lt;/div&gt;" style="text;html=1;align=center;verticalAlign=middle;resizable=0;points=[];autosize=1;strokeColor=none;fillColor=none;" parent="MsHCaOuLPp2bLugetIOG-48" vertex="1">
          <mxGeometry x="974" y="409.5" width="170" height="40" as="geometry" />
        </mxCell>
        <mxCell id="5VWoQrXUwFYdslfdeyXX-12" style="edgeStyle=orthogonalEdgeStyle;shape=flexArrow;rounded=0;orthogonalLoop=1;jettySize=auto;html=1;" parent="MsHCaOuLPp2bLugetIOG-48" edge="1">
          <mxGeometry relative="1" as="geometry">
            <mxPoint x="844" y="429.5" as="targetPoint" />
            <mxPoint x="904" y="430" as="sourcePoint" />
          </mxGeometry>
        </mxCell>
        <mxCell id="5VWoQrXUwFYdslfdeyXX-9" value="" style="sketch=0;outlineConnect=0;fontColor=#232F3E;gradientColor=none;fillColor=#8C4FFF;strokeColor=none;dashed=0;verticalLabelPosition=bottom;verticalAlign=top;align=center;html=1;fontSize=12;fontStyle=0;aspect=fixed;pointerEvents=1;shape=mxgraph.aws4.application_load_balancer;" parent="MsHCaOuLPp2bLugetIOG-48" vertex="1">
          <mxGeometry x="935" y="409.5" width="40" height="40" as="geometry" />
        </mxCell>
        <mxCell id="5VWoQrXUwFYdslfdeyXX-15" style="edgeStyle=orthogonalEdgeStyle;rounded=0;orthogonalLoop=1;jettySize=auto;html=1;fillColor=#f8cecc;strokeColor=#b85450;" parent="MsHCaOuLPp2bLugetIOG-48" edge="1">
          <mxGeometry relative="1" as="geometry">
            <Array as="points">
              <mxPoint x="1037" y="390" />
              <mxPoint x="1037" y="390" />
            </Array>
            <mxPoint x="1036.999999999999" y="359" as="sourcePoint" />
            <mxPoint x="1036.999999999999" y="409.5" as="targetPoint" />
          </mxGeometry>
        </mxCell>
        <mxCell id="5VWoQrXUwFYdslfdeyXX-14" value="AWSManagedRulesAntiDDoSRuleSet&lt;div&gt;AWSManagedRulesBotControlRuleSet&lt;/div&gt;&lt;div&gt;&lt;div&gt;AWS-AWSManagedRulesCommonRuleSet&lt;/div&gt;&lt;/div&gt;&lt;div&gt;&lt;div&gt;AWS-AWSManagedRulesAmazonIpReputationList&lt;/div&gt;&lt;/div&gt;" style="text;html=1;align=center;verticalAlign=middle;resizable=0;points=[];autosize=1;strokeColor=#b85450;fillColor=#f8cecc;" parent="MsHCaOuLPp2bLugetIOG-48" vertex="1">
          <mxGeometry x="894" y="304" width="290" height="70" as="geometry" />
        </mxCell>
        <mxCell id="1rbyGvB3YFkBFvbN_M8A-3" value="" style="sketch=0;outlineConnect=0;fontColor=#232F3E;gradientColor=none;fillColor=#C925D1;strokeColor=none;dashed=0;verticalLabelPosition=bottom;verticalAlign=top;align=center;html=1;fontSize=12;fontStyle=0;aspect=fixed;pointerEvents=1;shape=mxgraph.aws4.rds_mysql_instance;" vertex="1" parent="MsHCaOuLPp2bLugetIOG-48">
          <mxGeometry x="386" y="370.5" width="50.5" height="50.5" as="geometry" />
        </mxCell>
        <mxCell id="MsHCaOuLPp2bLugetIOG-47" value="&lt;font style=&quot;color: rgb(0, 0, 204);&quot;&gt;&lt;b&gt;VPC&lt;/b&gt;&lt;/font&gt;&lt;div&gt;&lt;font color=&quot;#000000&quot;&gt;sistemasclinicos-vpc&lt;/font&gt;&lt;font style=&quot;background-color: transparent; color: light-dark(rgb(170, 183, 184), rgb(74, 85, 86));&quot;&gt;&lt;font color=&quot;#0000cc&quot;&gt;&amp;nbsp;-&amp;nbsp;&lt;/font&gt;&lt;/font&gt;&lt;span style=&quot;background-color: transparent; color: rgb(0, 0, 0);&quot;&gt;10.10.0.0/24&lt;/span&gt;&lt;/div&gt;&lt;div&gt;&lt;font color=&quot;#000000&quot;&gt;vpc-0f66c82b89befe3cf&lt;/font&gt;&lt;/div&gt;" style="points=[[0,0],[0.25,0],[0.5,0],[0.75,0],[1,0],[1,0.25],[1,0.5],[1,0.75],[1,1],[0.75,1],[0.5,1],[0.25,1],[0,1],[0,0.75],[0,0.5],[0,0.25]];outlineConnect=0;gradientColor=none;html=1;whiteSpace=wrap;fontSize=12;fontStyle=0;container=1;pointerEvents=0;collapsible=0;recursiveResize=0;shape=mxgraph.aws4.group;grIcon=mxgraph.aws4.group_vpc2;strokeColor=#8C4FFF;fillColor=none;verticalAlign=top;align=left;spacingLeft=30;fontColor=#AAB7B8;dashed=0;" parent="MsHCaOuLPp2bLugetIOG-48" vertex="1">
          <mxGeometry x="51" y="54" width="1180" height="516" as="geometry" />
        </mxCell>
        <mxCell id="MsHCaOuLPp2bLugetIOG-58" style="edgeStyle=orthogonalEdgeStyle;rounded=0;orthogonalLoop=1;jettySize=auto;html=1;dashed=1;dashPattern=8 8;sketch=1;curveFitting=1;jiggle=2;fillColor=#d80073;strokeColor=#A50040;" parent="1" source="MsHCaOuLPp2bLugetIOG-49" target="MsHCaOuLPp2bLugetIOG-53" edge="1">
          <mxGeometry relative="1" as="geometry" />
        </mxCell>
        <mxCell id="MsHCaOuLPp2bLugetIOG-49" value="AWS Client VPN&lt;div&gt;VPN Port 443&lt;/div&gt;&lt;div&gt;Client CIDR&amp;nbsp;10.1.0.0/16&lt;/div&gt;&lt;div&gt;DNS&amp;nbsp;10.0.129.179, 10.0.161.99&lt;/div&gt;&lt;div&gt;cvpn-endpoint-000e86465123d92be&lt;/div&gt;&lt;div&gt;&lt;br&gt;&lt;/div&gt;" style="sketch=0;points=[[0,0,0],[0.25,0,0],[0.5,0,0],[0.75,0,0],[1,0,0],[0,1,0],[0.25,1,0],[0.5,1,0],[0.75,1,0],[1,1,0],[0,0.25,0],[0,0.5,0],[0,0.75,0],[1,0.25,0],[1,0.5,0],[1,0.75,0]];outlineConnect=0;fontColor=#232F3E;fillColor=#8C4FFF;strokeColor=#ffffff;dashed=0;verticalLabelPosition=bottom;verticalAlign=top;align=center;html=1;fontSize=12;fontStyle=0;aspect=fixed;shape=mxgraph.aws4.resourceIcon;resIcon=mxgraph.aws4.client_vpn;" parent="1" vertex="1">
          <mxGeometry x="-410" y="316" width="48" height="48" as="geometry" />
        </mxCell>
        <mxCell id="MsHCaOuLPp2bLugetIOG-57" value="Authorization Rules" style="rounded=1;whiteSpace=wrap;html=1;flipV=1;flipH=1;rotation=-90;dashed=1;dashPattern=8 8;strokeWidth=2;strokeColor=#33FF33;perimeterSpacing=4;" parent="1" vertex="1">
          <mxGeometry x="-340" y="324" width="180" height="40" as="geometry" />
        </mxCell>
        <mxCell id="MsHCaOuLPp2bLugetIOG-60" value="&lt;font style=&quot;color: rgb(0, 0, 204);&quot;&gt;&lt;b&gt;AWS Certificate&lt;/b&gt;&lt;/font&gt;&lt;div&gt;&lt;font style=&quot;color: rgb(0, 0, 204);&quot;&gt;&lt;b&gt;Manager&lt;/b&gt;&lt;/font&gt;&lt;/div&gt;" style="sketch=0;points=[[0,0,0],[0.25,0,0],[0.5,0,0],[0.75,0,0],[1,0,0],[0,1,0],[0.25,1,0],[0.5,1,0],[0.75,1,0],[1,1,0],[0,0.25,0],[0,0.5,0],[0,0.75,0],[1,0.25,0],[1,0.5,0],[1,0.75,0]];outlineConnect=0;fontColor=#232F3E;fillColor=#DD344C;strokeColor=#ffffff;dashed=0;verticalLabelPosition=bottom;verticalAlign=top;align=center;html=1;fontSize=12;fontStyle=0;aspect=fixed;shape=mxgraph.aws4.resourceIcon;resIcon=mxgraph.aws4.certificate_manager_3;" parent="1" vertex="1">
          <mxGeometry x="-509" y="143" width="48" height="48" as="geometry" />
        </mxCell>
        <mxCell id="MsHCaOuLPp2bLugetIOG-61" value="" style="shape=flexArrow;endArrow=classic;startArrow=classic;html=1;rounded=0;" parent="1" edge="1">
          <mxGeometry width="100" height="100" relative="1" as="geometry">
            <mxPoint x="-430" y="326" as="sourcePoint" />
            <mxPoint x="-480" y="261" as="targetPoint" />
          </mxGeometry>
        </mxCell>
        <mxCell id="1rbyGvB3YFkBFvbN_M8A-9" value="" style="edgeStyle=orthogonalEdgeStyle;rounded=0;orthogonalLoop=1;jettySize=auto;html=1;entryX=0.5;entryY=0;entryDx=0;entryDy=0;fillColor=#ffe6cc;strokeColor=#d79b00;strokeWidth=3;dashed=1;dashPattern=8 8;" edge="1" parent="1" source="MsHCaOuLPp2bLugetIOG-53" target="MsHCaOuLPp2bLugetIOG-1">
          <mxGeometry relative="1" as="geometry">
            <mxPoint x="91.5006704088355" y="340.5" as="targetPoint" />
          </mxGeometry>
        </mxCell>
      </root>
    </mxGraphModel>
  </diagram>
</mxfile>
